<svg xmlns="http://www.w3.org/2000/svg" xmlns:xlink="http://www.w3.org/1999/xlink" viewBox="0 0 250 223.3"><defs><style>.cls-1{fill:#00518d;}.cls-2{fill:#dbdcdd;}.cls-3{fill:#cd2027;}.cls-4{fill:#fff;}.cls-5{fill:#adadad;}.cls-6{fill:url(#linear-gradient);}.cls-7{fill:#333;}.cls-8{fill:#005fa7;}.cls-9{fill:#ed1c25;}</style><linearGradient id="linear-gradient" x1="51.87" y1="-5080.24" x2="198.23" y2="-5289.26" gradientTransform="matrix(1, 0, 0, -1, 0, -5087.9)" gradientUnits="userSpaceOnUse"><stop offset="0.14" stop-color="#d3b268"/><stop offset="0.39" stop-color="#ffebb9"/><stop offset="0.46" stop-color="#f7e3af"/><stop offset="0.58" stop-color="#e7cf97"/><stop offset="0.73" stop-color="#d2b576"/><stop offset="0.9" stop-color="#b7954b"/><stop offset="1" stop-color="#a88334"/></linearGradient></defs><title>Asset 1</title><g id="Layer_2" data-name="Layer 2"><g id="Layer_1-2" data-name="Layer 1"><polygon class="cls-1" points="2.9 162.2 34.7 162.2 34.7 122.2 0 122.2 8.3 145.7 2.9 162.2"/><polygon class="cls-2" points="2 164.8 34.7 164.8 34.7 162.2 2.9 162.2 2 164.8"/><polygon class="cls-3" points="0 171 34.7 171 34.7 164.8 2 164.8 0 171"/><polygon class="cls-1" points="247.2 162.2 215.3 162.2 215.3 122.2 250 122.2 241.8 145.7 247.2 162.2"/><polygon class="cls-2" points="248 164.8 215.3 164.8 215.3 162.2 247.2 162.2 248 164.8"/><polygon class="cls-3" points="250 171 215.3 171 215.3 164.8 248 164.8 250 171"/><polygon class="cls-4" points="29.9 0 29.9 40.2 29.9 151.6 29.9 193.8 125 223.2 220.1 193.8 220.1 151.6 220.1 40.2 220.1 0 29.9 0"/><path class="cls-5" d="M219.4,0H30V193.8l95.1,29.5,95.1-29.5V0h-.8Zm0,47.9V193L125,222.2,30.7,193V.7H219.4V47.9Z"/><polygon class="cls-6" points="34.5 4.5 34.5 44.7 34.5 147 34.5 189.2 125 217.2 215.6 189.2 215.6 147 215.6 44.7 215.6 4.5 34.5 4.5"/><path class="cls-4" d="M74.9,177.1a3.74,3.74,0,0,1-2.5,1.8l4.4,8.6H73.7l-3.9-8H63.9v8H61.2v-19h9.2c2.4,0,3.8.9,4.5,2.2a6.9,6.9,0,0,1,.7,3.2A6.6,6.6,0,0,1,74.9,177.1Zm-2.4-4.8c-.4-.8-1.2-1.3-2.7-1.3H64v6h6.3a2.34,2.34,0,0,0,2.2-1,4.84,4.84,0,0,0,.3-1.8A7.52,7.52,0,0,0,72.5,172.3Z"/><path class="cls-4" d="M80.9,187.5H78l7.3-19h3.5l6.9,19H92.8l-1.7-4.8H82.7Zm6.6-14.7-.5-1.6-.5,1.7-2.9,7.4h6.6Z"/><path class="cls-4" d="M109.2,187.5l-8.8-14.9v14.9H97.7v-19H101l8.6,14.6V168.5h2.7v19Z"/><path class="cls-4" d="M127.3,187.5l-7-8.9-1.8,1.9v7h-2.8v-19h2.8v8.7l8.7-8.7h3.4l-8.2,8.3,8.4,10.7Z"/><path class="cls-4" d="M132.7,187.5v-19h2.8v19Z"/><path class="cls-4" d="M150.5,187.5l-8.8-14.9v14.9H139v-19h3.3l8.6,14.6V168.5h2.7v19Z"/><path class="cls-4" d="M170.2,187.5l-.1-2.3c-.7,1.1-2.3,2.5-5.7,2.5-4.2,0-8-1.8-8-9.7,0-5.7,2.1-9.7,8.3-9.7,5.6,0,7.7,3,7.7,6.6h-2.7c0-2.4-1.2-4.1-4.9-4.1s-5.6,1.8-5.6,7.3,1.7,7.3,5.6,7.3c2.8,0,4.5-1.5,5-3.1a24.24,24.24,0,0,0,0-2.7h-6.1V177h8.7v10.4h-2.2Z"/><path class="cls-4" d="M182.7,187.7c-4.8,0-7-1.5-7.8-3.9a6.8,6.8,0,0,1-.3-1.9h2.9a3.08,3.08,0,0,0,.3,1.3c.7,1.5,2.3,2.1,5,2.1,3.4,0,4.6-1.2,4.6-2.8,0-1.9-1.2-2.7-4.2-3.3-.7-.1-1.8-.4-2.8-.6-3.7-.7-5.5-2.2-5.5-5.3,0-2.9,2.2-5.1,7.4-5.1,4.4,0,6.5,1.5,7.4,3.9a6.09,6.09,0,0,1,.3,1.7h-2.9a2.56,2.56,0,0,0-.2-1.1c-.7-1.5-1.8-2.1-4.8-2.1-3.3,0-4.4,1.1-4.4,2.5,0,1.7,1,2.4,4.3,3,.9.2,2,.4,2.7.5,3.5.6,5.5,2.2,5.5,5.3C190.1,185.6,187.7,187.7,182.7,187.7Z"/><polygon class="cls-7" points="17.9 160.7 29.9 171 29.9 160.7 17.9 160.7"/><polygon class="cls-7" points="232.2 160.8 220.1 171 220.1 160.7 232.2 160.8"/><rect class="cls-8" x="17.9" y="111.9" width="214.3" height="40"/><rect class="cls-4" x="17.9" y="152" width="214.3" height="2.6"/><rect class="cls-9" x="17.9" y="154.6" width="214.3" height="6.2"/><g id="U.S.News"><path class="cls-4" d="M47.7,152.6c-7.6,0-13.2-2.8-13.2-10V121.8h6.7v20.3c0,3.2,2.4,5.1,6.7,5.1,3.8,0,6.5-1.9,6.5-5V121.9H61v21.2C61,149.4,55.4,152.6,47.7,152.6Z"/><path class="cls-4" d="M59.3,152.2V146h5.9v6.2Z"/><path class="cls-4" d="M79.7,152.6c-9.2,0-12.5-2.8-13.7-6.6a13.12,13.12,0,0,1-.4-3.1h6.9a5.85,5.85,0,0,0,.4,1.9c.8,1.8,2.8,2.5,6.9,2.5,4.6,0,6.2-1.3,6.2-3.3,0-2.5-1.3-3.4-6.2-4.3-.9-.2-3.1-.6-4.5-.8-5.9-1.1-9.6-3.8-9.6-8.9s4.2-8.6,13.1-8.6c7.6,0,11.2,2.7,12.7,6.5a9.29,9.29,0,0,1,.7,2.9H85.3a5.62,5.62,0,0,0-.4-1.5c-.8-1.7-2.5-2.6-6.3-2.6-5,0-6,1.1-6,2.8,0,2.2,1.8,3.1,6.8,4.1,1.5.3,3.5.7,4.2.8,6,1.2,9.2,3.7,9.2,8.9C92.8,148.9,88.5,152.6,79.7,152.6Z"/><path class="cls-4" d="M91.3,152.2V146h5.9v6.2Z"/><path class="cls-4" d="M117.9,152.2l-12.2-20.6v20.6H99.3V121.8H107l11.7,19.6V121.8h6.4v30.4Z"/><path class="cls-4" d="M148.1,150.5c-2,1.3-4.7,2-8.3,2-5,0-9-1.5-11.2-4.9a12.68,12.68,0,0,1-1.7-6.8,10.79,10.79,0,0,1,2-6.6c2.2-3.1,6-5,10.9-5,5.1,0,8.7,1.9,10.6,4.8a13.15,13.15,0,0,1,1.9,9.1h-19a4.4,4.4,0,0,0,1.2,2.7c.9,1,2.8,1.7,5.2,1.7a10.44,10.44,0,0,0,4.1-.7,3,3,0,0,0,1.9-1.8h6.4A9,9,0,0,1,148.1,150.5Zm-3.3-14.3a6.77,6.77,0,0,0-4.9-1.7,7.4,7.4,0,0,0-5.1,1.6,4.44,4.44,0,0,0-1.4,2.7H146A5.94,5.94,0,0,0,144.8,136.2Z"/><path class="cls-4" d="M184.3,152.2h-7.7s-4.4-12.9-4.5-13.6a15.69,15.69,0,0,0-.3-1.6s-.2,1.3-.3,1.6c0,.8-4.4,13.7-4.4,13.7h-7.8l-8-22.4h6.8l5.4,16.7,4.9-16.7h7.3l5.1,16.7,5.3-16.7h6.4Z"/><path class="cls-4" d="M204.4,152.6c-7.6,0-11.2-1.5-12.1-5.2a9,9,0,0,1-.2-2.2h6.5a2.34,2.34,0,0,0,.2,1.1c.4,1.1,2.1,1.3,5.7,1.3s4.9-.7,4.9-2-1.3-1.6-4.7-2c-.9-.1-3.5-.5-4.9-.7-4.9-.7-7.3-2.9-7.3-7.1,0-4,3.6-6.6,10.8-6.6,6.2,0,10,1.6,11.2,4.8a10.32,10.32,0,0,1,.4,2.7h-6.3a3,3,0,0,0-.3-1.2c-.4-.6-1.6-1.1-4.7-1.1-3.6,0-4.7.6-4.7,1.6s.7,1.3,3.9,1.8c1.3.2,4.4.7,5.2.8,5.4.8,7.8,2.8,7.8,7C215.6,150.2,212.1,152.6,204.4,152.6Z"/></g><g id="_World_Report" data-name="&amp; World Report"><path class="cls-4" d="M132.3,125.9a1.61,1.61,0,0,0,.3-.9h1.7a2.56,2.56,0,0,1-.8,1.9l1.3,1h-2.3c-.1-.1-.2-.2-.3-.2a4.67,4.67,0,0,1-1.7.3c-1.5,0-2.8-.3-2.8-1.4v-.3c0-.7.7-1.1,1.4-1.5a2,2,0,0,1-.5-1.3v-.3c0-.8.8-1.5,2-1.5a1.73,1.73,0,0,1,1.9,1.4v.3a2.14,2.14,0,0,1-1.2,1.7A7,7,0,0,1,132.3,125.9Zm-2.7.4c0,.3.3.4.9.4a.75.75,0,0,0,.5-.1,7,7,0,0,0-1-.8C129.8,126,129.6,126.1,129.6,126.3Zm1.5-2.8v-.1a.4.4,0,1,0-.8,0v.2a1.42,1.42,0,0,0,.2.6C130.8,124,131.1,123.8,131.1,123.5Z"/><path class="cls-4" d="M144.1,127.9h-2s-.9-3.5-.9-3.7c0,.2-.9,3.7-.9,3.7h-2l-1.7-6.1h2s.9,3.8.9,4c0-.2.9-4,.9-4h1.9s.9,3.8.9,4c0-.2.9-4,.9-4h1.8Z"/><path class="cls-4" d="M152.4,124.8c0,2.1-1,3.2-3.3,3.2s-3.3-1.1-3.3-3.2,1-3.1,3.3-3.1S152.4,122.7,152.4,124.8Zm-1.9,0c0-1.2-.3-1.7-1.4-1.7s-1.4.5-1.4,1.7.5,1.7,1.4,1.7S150.5,126.2,150.5,124.8Z"/><path class="cls-4" d="M158.8,124.9a1.56,1.56,0,0,1-.8.6l1.4,2.4h-2.1l-1.1-2.1h-1.3v2.1h-1.8v-6.1H157a2.2,2.2,0,0,1,1.7.6,2.23,2.23,0,0,1,.4,1.3A2.13,2.13,0,0,1,158.8,124.9Zm-1.6-1.4a.55.55,0,0,0-.5-.3h-1.6v1.2h1.6a.76.76,0,0,0,.5-.2c0-.1.1-.3.1-.4S157.2,123.6,157.2,123.5Z"/><path class="cls-4" d="M160.4,127.9v-6.1h1.9v4.6h2.9v1.5Z"/><path class="cls-4" d="M169.6,127.9h-3.4v-6.1h3.4a2.65,2.65,0,0,1,2.2.8c.4.5.4,1,.4,2.1a4.05,4.05,0,0,1-.4,2.3A2.53,2.53,0,0,1,169.6,127.9Zm.7-3.2c0-.4,0-1-.2-1.2s-.5-.3-.9-.3H168v3.2h1.2a1.08,1.08,0,0,0,.9-.3C170.3,125.9,170.3,125.2,170.3,124.7Z"/><path class="cls-4" d="M180.8,124.9a1.56,1.56,0,0,1-.8.6l1.4,2.4h-2.1l-1.1-2.1h-1.3v2.1h-1.8v-6.1H179a2.2,2.2,0,0,1,1.7.6,2.23,2.23,0,0,1,.4,1.3A2.13,2.13,0,0,1,180.8,124.9Zm-1.6-1.4a.55.55,0,0,0-.5-.3h-1.6v1.2h1.6a.76.76,0,0,0,.5-.2c0-.1.1-.3.1-.4A.37.37,0,0,0,179.2,123.5Z"/><path class="cls-4" d="M182.5,127.9v-6.1h5.2v1.4h-3.4v.9h3.2v1.5h-3.2v.9h3.4v1.4Z"/><path class="cls-4" d="M194.3,125.4a2.2,2.2,0,0,1-1.7.6h-1.9v1.9h-1.9v-6.1h3.8a2.35,2.35,0,0,1,1.6.5,2.46,2.46,0,0,1,.1,3.1Zm-1.5-1.9a.6.6,0,0,0-.6-.3h-1.5v1.4h1.5c.4,0,.5-.1.6-.3s.1-.2.1-.4S192.9,123.6,192.8,123.5Z"/><path class="cls-4" d="M202,124.8c0,2.1-1,3.2-3.3,3.2s-3.3-1.1-3.3-3.2,1-3.1,3.3-3.1S202,122.7,202,124.8Zm-1.9,0c0-1.2-.3-1.7-1.4-1.7s-1.4.5-1.4,1.7.5,1.7,1.4,1.7S200.1,126.2,200.1,124.8Z"/><path class="cls-4" d="M208.4,124.9a1.56,1.56,0,0,1-.8.6l1.4,2.4h-2l-1.1-2.1h-1.3v2.1h-1.8v-6.1h3.9a2.2,2.2,0,0,1,1.7.6,2.23,2.23,0,0,1,.4,1.3A3.37,3.37,0,0,1,208.4,124.9Zm-1.6-1.4a.55.55,0,0,0-.5-.3h-1.6v1.2h1.6a.76.76,0,0,0,.5-.2c0-.1.1-.3.1-.4A.37.37,0,0,0,206.8,123.5Z"/><path class="cls-4" d="M213.1,123.3v4.6h-1.9v-4.6h-1.9v-1.5h5.8v1.5Z"/></g><path class="cls-7" d="M89.1,57.4V19.6H82.6V13.3h41.9V28.5h-6.2V19.6H96.7v15h18.7v6.3H96.7V57.4h21.5V48.2h6.2V63.7H82.6V57.4Z"/><path class="cls-7" d="M128.9,63.9V45.7h6.3v4.4c3,5.5,7,8.2,11.8,8.2a9.22,9.22,0,0,0,6.3-2.3,7.64,7.64,0,0,0,2.6-6c0-2.4-.7-4.1-2.1-5.2a25.36,25.36,0,0,0-7.9-3.1,53.52,53.52,0,0,1-10-3.4,12.88,12.88,0,0,1-5.2-4.6,12.79,12.79,0,0,1-1.9-7.1A12.91,12.91,0,0,1,133,16.5a15.3,15.3,0,0,1,10.6-3.8,18.17,18.17,0,0,1,11.2,3.9V13.2H161V28.5h-6.2V25a12.09,12.09,0,0,0-10.7-5.8c-2.8,0-4.9.6-6.3,1.9a5.77,5.77,0,0,0-2.2,4.5,6.38,6.38,0,0,0,1.1,3.6,6.63,6.63,0,0,0,2.9,2.3,47.65,47.65,0,0,0,6.8,2,60.17,60.17,0,0,1,9.7,3.2,13.71,13.71,0,0,1,5.2,5,15.32,15.32,0,0,1,2.2,8.1A14,14,0,0,1,159,60.5a15.9,15.9,0,0,1-11.2,4.2,18.17,18.17,0,0,1-12.4-5v4.2Z"/><path class="cls-7" d="M49.6,57.4V19.6H43.4V13.3H60.2a52.45,52.45,0,0,1,10.4.8,11.69,11.69,0,0,1,6.1,4.2,12.32,12.32,0,0,1,2.6,7.9,12.06,12.06,0,0,1-1.6,6.3,10.63,10.63,0,0,1-4.6,4.3,12.84,12.84,0,0,1,6.5,4.8,13.45,13.45,0,0,1,2.3,7.7,14.28,14.28,0,0,1-1.7,6.8,12,12,0,0,1-4.5,4.7A16.57,16.57,0,0,1,69.6,63a52.83,52.83,0,0,1-9,.6H43.4V57.3h6.2Zm7.6-23.1h4.7c3.6,0,6.1-.6,7.6-1.9a7.22,7.22,0,0,0,2.2-5.6c0-4.8-3.3-7.2-9.7-7.2H57.3V34.3Zm0,23.1h2.9a40.13,40.13,0,0,0,8.2-.6,8,8,0,0,0,4.3-2.6,8.36,8.36,0,0,0,1.6-5.3,7.69,7.69,0,0,0-1.6-5,8.23,8.23,0,0,0-4.1-2.7,30.17,30.17,0,0,0-7-.7H57.2Z"/><path class="cls-7" d="M182.4,57.6V19.9H172V32.8h-6.2V13.6h40.8V32.8h-6.2V19.9H190V57.7h6.6V64H176V57.7h6.4Z"/><path class="cls-7" d="M99.8,99.3c-1.2,3.5-4.1,5.2-8.1,5.2-3.7,0-6-1.1-7.6-4-1.6-2.7-2-8.1-2-12.8,0-5.7.4-9.4,1.6-11.9,1.4-2.9,4.1-4.4,8-4.4,4.1,0,6.9,1.8,7.9,4.7a19,19,0,0,1,1,6.8H97a17.47,17.47,0,0,0-.9-5.7c-.7-1.6-2.2-2.3-4.4-2.3s-3.8.7-4.6,2.5c-1,2.3-1.2,6.4-1.2,10.5s.5,9.4,1.3,10.9a4.67,4.67,0,0,0,4.6,2.5c2,0,3.7-.7,4.5-2.7a15.08,15.08,0,0,0,.8-5.4h3.6A17.34,17.34,0,0,1,99.8,99.3Z"/><path class="cls-7" d="M105.2,104.2h-3.7l7.9-32.5H114l7.2,32.5h-3.8l-1.7-8h-8.8Zm6.9-25.3c-.1-.4-.4-3.2-.4-3.2s-.4,2.8-.5,3.2c-.1.6-3.4,14.1-3.4,14.1h7.4C115.1,93,112.1,79.4,112.1,78.9Z"/><path class="cls-7" d="M129.8,75.1v29.1H126V75.1h-6.8V71.7h17.3v3.4Z"/><path class="cls-7" d="M139,104.2V71.7h3.7v32.5Z"/><path class="cls-7" d="M163.7,76c1.1,2.5,1.5,6.5,1.5,11.8,0,5.9-.4,9.5-1.6,12-1.4,3.2-3.8,4.7-7.9,4.7s-6.7-1.7-7.9-4.7c-.9-2.3-1.6-5.7-1.6-12,0-5.4.5-9.1,1.6-11.9s3.7-4.6,7.9-4.6S162.5,73.1,163.7,76Zm-3.4,22.8c.8-1.9,1.3-5.4,1.3-10.8,0-3.3-.3-8.3-1.1-10.3a4.74,4.74,0,0,0-4.7-2.8c-2.5,0-3.9,1.2-4.5,2.8-.8,2-1.1,7-1.1,10.4,0,3.7.2,8.3,1.1,10.6a4.64,4.64,0,0,0,4.5,2.7A4.8,4.8,0,0,0,160.3,98.8Z"/><path class="cls-7" d="M54.8,104.2H50.4L42.6,71.7h3.8l6.2,27.4,6.2-27.4h3.7Z"/><path class="cls-7" d="M65,104.2H61.3l7.9-32.5h4.6L81,104.2H77.2l-1.7-8H66.7Zm6.8-25.3c-.1-.4-.4-3.2-.4-3.2s-.4,2.8-.5,3.2c-.2.6-3.4,14.1-3.4,14.1h7.4S71.9,79.4,71.8,78.9Z"/><path class="cls-7" d="M181.3,104.2l-9.1-24.9v24.9h-3.4V71.7H173l9,24.6V71.7h3.4v32.5Z"/><path class="cls-7" d="M197.7,104.6c-5.3,0-8-2-8.6-5.4a19.34,19.34,0,0,1-.2-4h3.6c0,.7.1,2.3.2,3.2.3,2.2,2.3,3,5.2,3,3.2,0,4.7-1.4,4.7-4.7,0-3-1.1-4.7-4.6-6.9-.7-.5-2.2-1.4-3.2-2-3.6-2.3-5.9-4.6-5.9-9s2.8-7.3,8.5-7.3c5.2,0,7.7,2.2,8.5,6a19.42,19.42,0,0,1,.2,3.3h-3.7c0-.5,0-1.8-.1-2.7-.5-2.3-1.8-3.4-5-3.4s-4.5,1.5-4.5,4c0,2.7,1.1,4.2,4.7,6.4,1,.6,2.3,1.4,3.1,1.9,3.8,2.3,5.9,4.8,5.9,9.4C206.3,101.7,203.3,104.6,197.7,104.6Z"/></g></g></svg>